<svg id="Layer_1" data-name="Layer 1" xmlns="http://www.w3.org/2000/svg" viewBox="0 0 266 47.53">
    <defs>
        <style>
            .cls-1{fill:#6d6f71;}.cls-2{fill:#a7aaac;}.cls-3{fill:#08aab5;}.cls-4{fill:#57c5cf;}.cls-5{fill:#979797;}
        </style>
    </defs>
    <title>joulon-logo</title>
    <g id="Page-1">
        <g id="Joulon_logo" data-name="Joulon logo">
            <g id="Group">
                <path id="Fill-3" class="cls-1"
                      d="M17,32.63H10.3a1,1,0,0,1-1-1v-22a1,1,0,0,1,1-.94H18V31.59a1,1,0,0,1-1,1"/>
                <path id="Fill-5" class="cls-2"
                      d="M42.08,1V7.68a1,1,0,0,1-1,1H10.28a1,1,0,0,0-1,1V1.05a1,1,0,0,1,1-1.05H41a1,1,0,0,1,1.08,1"/>
                <path id="Fill-8" class="cls-3"
                      d="M25.08,14.75h6.7a1,1,0,0,1,1,1v22a1,1,0,0,1-1,.94H24V15.79a1,1,0,0,1,1-1"/>
                <path id="Fill-10" class="cls-4"
                      d="M0,46.41V39.7a1,1,0,0,1,1-1.05H31.8a1,1,0,0,0,1-1v8.64a1,1,0,0,1-1,1.05H1.08a1,1,0,0,1-1.08-1"/>
                <path id="Fill-13" class="cls-1"
                      d="M58.2,47.3H86.32a3.16,3.16,0,0,0,.4-0.12,1.19,1.19,0,0,0,.67-1V18.08a1,1,0,0,0-.94-0.83H80.32a1,1,0,0,0-1,1V38.46a0.86,0.86,0,0,1-.73.77l-20.36.06a0.93,0.93,0,0,0-.88.8v6.35a0.92,0.92,0,0,0,.84.85m36.18,0h27.79A1.22,1.22,0,0,0,123.41,46V18.13a1,1,0,0,0-1-.87h-28a1,1,0,0,0-1,.93v28.2a1,1,0,0,0,1,.91m7.94-22h12.16a0.92,0.92,0,0,1,.94.91v12a1,1,0,0,1-.91,1.08H102.4a1,1,0,0,1-.95-1.06V26.08a0.93,0.93,0,0,1,.86-0.82m48.21,14H138.37a0.94,0.94,0,0,1-1-.95V18.14a1,1,0,0,0-.94-0.9h-6.11a1,1,0,0,0-.94.91V46.3a1,1,0,0,0,.94,1h27.91a1.18,1.18,0,0,0,1.15-1.16V18.22a1,1,0,0,0-1-1h-6a1,1,0,0,0-1,.92V38.44a0.89,0.89,0,0,1-.87.86"/>
                <path id="Fill-15" class="cls-1"
                      d="M256.71,25.24H244.54a1,1,0,0,0-1,.95v20.2a1,1,0,0,1-.94.9h-6.11a1,1,0,0,1-.94-0.91V18.24a1,1,0,0,1,.95-1h27.91a1.18,1.18,0,0,1,1.15,1.16V46.32a1,1,0,0,1-1,1h-6a1,1,0,0,1-1-.92V26.1a0.9,0.9,0,0,0-.87-0.86"/>
                <path id="Fill-17" class="cls-1"
                      d="M200.52,47.27h27.8A1.22,1.22,0,0,0,229.55,46V18.1a1,1,0,0,0-1-.87h-28a1,1,0,0,0-1,.93v28.2a1,1,0,0,0,1,.91m7.94-22h12.16a0.92,0.92,0,0,1,.94.91v12a1,1,0,0,1-.91,1.08H208.54a1,1,0,0,1-.95-1.05V26.06a0.93,0.93,0,0,1,.86-0.82"/>
                <path id="Fill-19" class="cls-1"
                      d="M172.48,17.22h-6.13a0.93,0.93,0,0,0-.95.93V45.85c0,0.07,0,.13,0,0.2a1.18,1.18,0,0,0,1.21,1.22h27.87a0.94,0.94,0,0,0,.94-0.92V40.21a0.92,0.92,0,0,0-.94-0.94l-20.16,0a1,1,0,0,1-.91-1v-20a0.95,0.95,0,0,0-.94-1"/>
            </g>
        </g>
    </g>
</svg>